<svg width="161" height="161" viewBox="0 0 161 161" fill="none" xmlns="http://www.w3.org/2000/svg">
<path d="M80.5 0C36.111 0 0 36.111 0 80.5C0 124.889 36.111 161 80.5 161C124.889 161 161 124.889 161 80.5C161 36.111 124.889 0 80.5 0ZM121.3 63.4407L77.6959 107.045C76.3878 108.353 74.6705 109.01 72.9531 109.01C71.2358 109.01 69.5185 108.353 68.2103 107.045L46.4083 85.2428C43.7853 82.6198 43.7853 78.3802 46.4083 75.7572C49.0312 73.1343 53.2709 73.1343 55.8938 75.7572L72.9531 92.8165L111.814 53.9551C114.437 51.3322 118.677 51.3322 121.3 53.9551C123.923 56.5781 123.923 60.8177 121.3 63.4407Z" fill="#10C3F4"/>
</svg>
