<svg width="29" height="29" viewBox="0 0 29 29" fill="none" xmlns="http://www.w3.org/2000/svg">
<circle r="14.5" transform="matrix(1 0 0 -1 14.5 14.5)" fill="#10C3F4"/>
<path d="M11.7773 14.6878L15.3374 11.1278C15.4197 11.0454 15.5296 11 15.6469 11C15.7641 11 15.874 11.0454 15.9563 11.1278L16.2185 11.3899C16.3891 11.5607 16.3891 11.8383 16.2185 12.0088L13.229 14.9983L16.2218 17.9912C16.3041 18.0736 16.3496 18.1834 16.3496 18.3006C16.3496 18.4178 16.3041 18.5277 16.2218 18.6101L15.9596 18.8722C15.8772 18.9546 15.7674 19 15.6502 19C15.533 19 15.423 18.9546 15.3407 18.8722L11.7773 15.3089C11.6948 15.2262 11.6494 15.1159 11.6497 14.9985C11.6494 14.8807 11.6948 14.7704 11.7773 14.6878Z" fill="white"/>
</svg>
