<svg width="53" height="53" viewBox="0 0 53 53" fill="none" xmlns="http://www.w3.org/2000/svg">
<g clip-path="url(#clip0)">
<path d="M50.8967 6.13734H2.1033C0.941635 6.13734 0 7.07916 0 8.24063V44.7594C0 45.9208 0.941635 46.8627 2.1033 46.8627H50.8969C52.0584 46.8627 53.0002 45.921 53.0002 44.7594V8.24063C53 7.07916 52.0582 6.13734 50.8967 6.13734ZM19.0012 34.7167L20.8252 28.3309H14.0179L12.1932 34.7167H8.01513L12.7094 18.2833H16.8886L14.957 25.0445H21.7639L23.6955 18.2833H27.8751L23.1797 34.7167H19.0012ZM44.6131 26.5C43.2247 31.3594 38.65 34.7167 33.3681 34.7167H26.4668L29.5683 23.8595H33.7464L31.5976 31.3822H34.5789C37.1377 31.3822 39.5323 29.4107 40.3568 26.5239C41.1886 23.6125 39.8337 21.6174 37.181 21.6174H30.2081L31.1607 18.2833H38.2271C43.3917 18.2833 46.0072 21.6174 44.6131 26.5Z" fill="#FF5C28"/>
</g>
<defs>
<clipPath id="clip0">
<rect width="53" height="53" fill="white"/>
</clipPath>
</defs>
</svg>
