<svg width="217" height="61" viewBox="0 0 217 61" fill="none" xmlns="http://www.w3.org/2000/svg">
<path d="M52.4555 0.00297202V7.29216C52.4555 10.9679 49.4745 13.9489 45.7987 13.9489H24.1746C18.4412 13.9489 13.7916 18.5956 13.7916 24.3319V39.7951C12.0012 40.6176 10.772 42.4495 10.8165 44.5576C10.8729 47.2268 13.0641 49.4566 15.7304 49.5606C18.649 49.6734 21.0511 47.3397 21.0511 44.4448C21.0511 42.3842 19.8337 40.6027 18.073 39.7951V24.5457C18.073 20.9739 20.9679 18.076 24.5428 18.076H45.2761V25.3652C45.2761 29.041 42.2951 32.022 38.6193 32.022H31.5588V44.2637C31.5588 52.8503 24.804 60.0623 16.2173 60.2939C11.6894 60.4157 7.57126 58.6283 4.61995 55.6799C1.76663 52.8236 0 48.8806 0 44.522V25.4751C0 22.9038 0.383017 20.4157 1.09561 18.073C1.52613 16.639 2.08432 15.2583 2.75237 13.946C6.95962 5.66805 15.5582 0 25.4751 0H52.4555V0.00297202Z" fill="#10C3F4"/>
<path d="M70.0273 16.3975H79.2168V18.8114H72.6847V21.3796H78.4418V23.7935H72.6847V28.464H70.0303V16.3975H70.0273Z" fill="#333333"/>
<path d="M81.4561 16.3975H84.1104V28.464H81.4561V16.3975Z" fill="#333333"/>
<path d="M87.126 16.3975H89.7804V26.0501H95.7958V28.464H87.126V16.3975Z" fill="#333333"/>
<path d="M97.7979 16.3975H100.452V26.0501H106.468V28.464H97.7979V16.3975Z" fill="#333333"/>
<path d="M113.641 16.3975H116.087L121.74 23.8262V16.3975H124.362V28.464H122.103L116.259 20.7918V28.464H113.638V16.3975H113.641Z" fill="#333333"/>
<path d="M127.257 16.3975H136.36V18.7579H129.896V21.2045H135.585V23.5649H129.896V26.1005H136.446V28.461H127.257V16.3975Z" fill="#333333"/>
<path d="M141.618 18.844H137.945V16.3975H147.942V18.844H144.27V28.464H141.615V18.844H141.618Z" fill="#333333"/>
<path d="M149.048 16.397H151.892L154.392 24.568L157.1 16.3613H159.374L162.082 24.568L164.582 16.397H167.358L163.237 28.5496H160.927L158.205 20.6547L155.482 28.5496H153.172L149.048 16.397Z" fill="#333333"/>
<path d="M168.099 22.4296C168.099 19.0002 170.806 16.1885 174.53 16.1885C178.253 16.1885 180.925 18.9646 180.925 22.4296C180.925 25.8589 178.217 28.6706 174.494 28.6706C170.771 28.6706 168.099 25.8945 168.099 22.4296ZM178.149 22.4296C178.149 20.3601 176.632 18.638 174.494 18.638C172.356 18.638 170.875 20.3274 170.875 22.4296C170.875 24.499 172.392 26.2211 174.53 26.2211C176.665 26.2211 178.149 24.5317 178.149 22.4296Z" fill="#333333"/>
<path d="M183.286 16.3975H188.803C190.338 16.3975 191.525 16.828 192.318 17.6207C192.989 18.2918 193.351 19.2419 193.351 20.4147C193.351 22.3624 192.3 23.5857 190.765 24.1558L193.714 28.464H190.611L187.992 24.6011H185.941V28.464H183.286V16.3975ZM188.631 22.2585C189.922 22.2585 190.664 21.5697 190.664 20.5186C190.664 19.3814 189.872 18.7935 188.577 18.7935H185.941V22.2585H188.631Z" fill="#333333"/>
<path d="M195.749 16.3975H198.403V21.6736L203.299 16.3975H206.506L201.592 21.5162L206.729 28.464H203.54L199.799 23.3274L198.403 24.7763V28.464H195.749V16.3975Z" fill="#333333"/>
<path d="M207.332 26.7046L208.9 24.8252C209.986 25.7218 211.124 26.2919 212.501 26.2919C213.588 26.2919 214.241 25.8614 214.241 25.1191C214.241 24.4481 213.828 24.1007 211.809 23.5841C209.378 22.9635 207.81 22.2925 207.81 19.8608C207.81 17.6726 209.568 16.2236 212.032 16.2236C213.79 16.2236 215.289 16.7759 216.516 17.7587L215.135 19.7569C214.066 19.0146 213.015 18.5663 211.997 18.5663C210.978 18.5663 210.444 19.0324 210.444 19.653C210.444 20.4457 210.96 20.704 213.048 21.2385C215.494 21.8768 216.875 22.7557 216.875 24.8935C216.875 27.2895 215.049 28.6346 212.445 28.6346C210.625 28.6346 208.781 27.9962 207.332 26.7046Z" fill="#333333"/>
<path d="M70.3496 34.125H71.3621V35.1018H70.3496V34.125ZM70.409 36.3993H71.2938V42.3406H70.409V36.3993Z" fill="#FF5C28"/>
<path d="M76.5674 36.3982H77.4522V37.4314C77.8441 36.7871 78.4647 36.2705 79.486 36.2705C80.9231 36.2705 81.7604 37.2355 81.7604 38.6488V42.3364H80.8756V38.8655C80.8756 37.764 80.2788 37.0722 79.2337 37.0722C78.2123 37.0722 77.4522 37.8174 77.4522 38.9338V42.3335H76.5674V36.3982Z" fill="#FF5C28"/>
<path d="M87.1731 40.7634V37.1797H86.3447V36.3988H87.1731V34.6055H88.0579V36.3988H89.9433V37.1797H88.0579V40.6506C88.0579 41.3751 88.4587 41.6393 89.0585 41.6393C89.3584 41.6393 89.6108 41.5829 89.9195 41.4315V42.1886C89.6108 42.3489 89.2752 42.441 88.8507 42.441C87.8946 42.441 87.1731 41.9719 87.1731 40.7634Z" fill="#FF5C28"/>
<path d="M97.1666 41.707C97.9831 41.707 98.5561 41.3745 99.0401 40.8668L99.5924 41.3596C98.9956 42.0247 98.2711 42.473 97.1458 42.473C95.5128 42.473 94.1826 41.2201 94.1826 39.3703C94.1826 37.6482 95.3881 36.2676 97.033 36.2676C98.7907 36.2676 99.8032 37.669 99.8032 39.4148C99.8032 39.495 99.8032 39.5871 99.7913 39.7236H95.0763C95.201 40.9825 96.1214 41.707 97.1666 41.707ZM98.9006 39.017C98.7966 37.9362 98.1761 37.0188 97.0063 37.0188C95.9849 37.0188 95.201 37.8679 95.0763 39.017H98.9006Z" fill="#FF5C28"/>
<path d="M104.565 36.3981H105.45V37.948C105.887 36.9593 106.748 36.2467 107.876 36.2942V37.2473H107.808C106.51 37.2473 105.453 38.1766 105.453 39.97V42.3364H104.568V36.3981H104.565Z" fill="#FF5C28"/>
<path d="M112.438 36.3982H113.322V37.4314C113.714 36.7871 114.335 36.2705 115.356 36.2705C116.793 36.2705 117.631 37.2355 117.631 38.6488V42.3364H116.746V38.8655C116.746 37.764 116.149 37.0722 115.104 37.0722C114.082 37.0722 113.322 37.8174 113.322 38.9338V42.3335H112.438V36.3982Z" fill="#FF5C28"/>
<path d="M125.354 41.707C126.171 41.707 126.744 41.3745 127.228 40.8668L127.78 41.3596C127.183 42.0247 126.459 42.473 125.333 42.473C123.703 42.473 122.37 41.2201 122.37 39.3703C122.37 37.6482 123.576 36.2676 125.22 36.2676C126.978 36.2676 127.991 37.669 127.991 39.4148C127.991 39.495 127.991 39.5871 127.979 39.7236H123.267C123.389 40.9825 124.309 41.707 125.354 41.707ZM127.088 39.017C126.984 37.9362 126.364 37.0188 125.194 37.0188C124.172 37.0188 123.389 37.8679 123.264 39.017H127.088Z" fill="#FF5C28"/>
<path d="M133.06 40.7634V37.1797H132.231V36.3988H133.06V34.6055H133.945V36.3988H135.83V37.1797H133.945V40.6506C133.945 41.3751 134.345 41.6393 134.945 41.6393C135.245 41.6393 135.497 41.5829 135.806 41.4315V42.1886C135.497 42.3489 135.162 42.441 134.737 42.441C133.784 42.441 133.06 41.9719 133.06 40.7634Z" fill="#FF5C28"/>
<path d="M147.273 36.3982H148.158V37.5918C148.639 36.8792 149.343 36.2705 150.433 36.2705C151.858 36.2705 153.271 37.3958 153.271 39.3732C153.271 41.315 151.87 42.4641 150.433 42.4641C149.331 42.4641 148.618 41.8673 148.158 41.1992V44.1743H147.273V36.3982ZM152.363 39.3614C152.363 37.9599 151.398 37.0633 150.272 37.0633C149.171 37.0633 148.123 37.9926 148.123 39.3732C148.123 40.7539 149.168 41.6713 150.272 41.6713C151.421 41.6713 152.363 40.8222 152.363 39.3614Z" fill="#FF5C28"/>
<path d="M158.12 36.3981H159.005V37.948C159.441 36.9593 160.302 36.2467 161.431 36.2942V37.2473H161.362C160.065 37.2473 159.008 38.1766 159.008 39.97V42.3364H158.123V36.3981H158.12Z" fill="#FF5C28"/>
<path d="M165.371 39.3732C165.371 37.6957 166.68 36.2705 168.474 36.2705C170.255 36.2705 171.565 37.6719 171.565 39.3732C171.565 41.0508 170.243 42.476 168.45 42.476C166.669 42.476 165.371 41.0745 165.371 39.3732ZM170.656 39.3732C170.656 38.0965 169.703 37.0514 168.45 37.0514C167.164 37.0514 166.28 38.0965 166.28 39.3732C166.28 40.647 167.221 41.6832 168.474 41.6832C169.759 41.6832 170.656 40.647 170.656 39.3732Z" fill="#FF5C28"/>
<path d="M175.448 36.3984H176.425L178.423 41.3272L180.433 36.3984H181.386L178.8 42.3842H178.02L175.448 36.3984Z" fill="#FF5C28"/>
<path d="M186.019 34.125H187.031V35.1018H186.019V34.125ZM186.075 36.3993H186.96V42.3406H186.075V36.3993Z" fill="#FF5C28"/>
<path d="M191.888 39.3619C191.888 37.4201 193.301 36.271 194.726 36.271C195.828 36.271 196.54 36.8678 197.001 37.5359V33.9521H197.885V42.3399H197.001V41.1463C196.52 41.8589 195.816 42.4676 194.726 42.4676C193.301 42.4646 191.888 41.3393 191.888 39.3619ZM197.036 39.35C197.036 37.9812 195.991 37.0638 194.886 37.0638C193.737 37.0638 192.796 37.913 192.796 39.3738C192.796 40.7752 193.761 41.6719 194.886 41.6719C195.991 41.6719 197.036 40.7396 197.036 39.35Z" fill="#FF5C28"/>
<path d="M205.697 41.707C206.513 41.707 207.086 41.3745 207.57 40.8668L208.123 41.3596C207.526 42.0247 206.801 42.473 205.676 42.473C204.043 42.473 202.713 41.2201 202.713 39.3703C202.713 37.6482 203.918 36.2676 205.563 36.2676C207.321 36.2676 208.333 37.669 208.333 39.4148C208.333 39.495 208.333 39.5871 208.322 39.7236H203.61C203.734 40.9825 204.652 41.707 205.697 41.707ZM207.434 39.017C207.33 37.9362 206.709 37.0188 205.539 37.0188C204.518 37.0188 203.734 37.8679 203.61 39.017H207.434Z" fill="#FF5C28"/>
<path d="M213.096 36.3981H213.98V37.948C214.417 36.9593 215.278 36.2467 216.403 36.2942V37.2473H216.335C215.038 37.2473 213.98 38.1766 213.98 39.97V42.3364H213.096V36.3981Z" fill="#FF5C28"/>
</svg>
