<svg width="162" height="46" viewBox="0 0 162 46" fill="none" xmlns="http://www.w3.org/2000/svg">
<path d="M39.1526 0.00221831V5.44285C39.1526 8.18644 36.9276 10.4115 34.184 10.4115H18.0439C13.7645 10.4115 10.294 13.8797 10.294 18.1613V29.703C8.95766 30.3169 8.04017 31.6842 8.07341 33.2577C8.11552 35.25 9.75104 36.9143 11.7411 36.9919C13.9196 37.0761 15.7125 35.3342 15.7125 33.1735C15.7125 31.6355 14.8038 30.3058 13.4897 29.703V18.3209C13.4897 15.6548 15.6504 13.4919 18.3187 13.4919H33.794V18.9325C33.794 21.6761 31.569 23.9011 28.8254 23.9011H23.5554V33.0383C23.5554 39.4474 18.5137 44.8304 12.1046 45.0033C8.72496 45.0941 5.65117 43.76 3.44832 41.5594C1.31861 39.4274 0 36.4844 0 33.2311V19.0145C0 17.0953 0.285883 15.2382 0.817758 13.4897C1.1391 12.4193 1.55573 11.3888 2.05436 10.4092C5.19464 4.23062 11.6126 0 19.0145 0H39.1526V0.00221831Z" fill="white"/>
<path d="M52.2686 12.2393H59.1275V14.041H54.252V15.9579H58.5491V17.7597H54.252V21.2457H52.2708V12.2393H52.2686Z" fill="white"/>
<path d="M60.7988 12.2393H62.7801V21.2457H60.7988V12.2393Z" fill="white"/>
<path d="M65.0312 12.2393H67.0125V19.4439H71.5024V21.2457H65.0312V12.2393Z" fill="white"/>
<path d="M72.9961 12.2393H74.9773V19.4439H79.4672V21.2457H72.9961V12.2393Z" fill="white"/>
<path d="M84.8216 12.2393H86.6477L90.8672 17.7841V12.2393H92.824V21.2457H91.1376L86.7762 15.5192V21.2457H84.8193V12.2393H84.8216Z" fill="white"/>
<path d="M94.9844 12.2393H101.779V14.0011H96.9545V15.8272H101.201V17.589H96.9545V19.4816H101.843V21.2435H94.9844V12.2393Z" fill="white"/>
<path d="M105.703 14.0654H102.962V12.2393H110.424V14.0654H107.682V21.2457H105.701V14.0654H105.703Z" fill="white"/>
<path d="M111.249 12.2385H113.372L115.238 18.3373L117.259 12.2119H118.957L120.978 18.3373L122.844 12.2385H124.916L121.84 21.3092H120.116L118.084 15.4165L116.051 21.3092H114.327L111.249 12.2385Z" fill="white"/>
<path d="M125.469 16.7413C125.469 14.1817 127.49 12.083 130.269 12.083C133.048 12.083 135.042 14.1551 135.042 16.7413C135.042 19.301 133.021 21.3997 130.242 21.3997C127.463 21.3997 125.469 19.3276 125.469 16.7413ZM132.97 16.7413C132.97 15.1967 131.838 13.9113 130.242 13.9113C128.647 13.9113 127.541 15.1723 127.541 16.7413C127.541 18.286 128.673 19.5714 130.269 19.5714C131.862 19.5714 132.97 18.3104 132.97 16.7413Z" fill="white"/>
<path d="M136.805 12.2393H140.922C142.068 12.2393 142.954 12.5606 143.546 13.1523C144.047 13.6532 144.317 14.3623 144.317 15.2377C144.317 16.6915 143.533 17.6045 142.387 18.03L144.588 21.2457H142.272L140.317 18.3625H138.786V21.2457H136.805V12.2393ZM140.794 16.6139C141.758 16.6139 142.312 16.0998 142.312 15.3153C142.312 14.4665 141.72 14.0277 140.754 14.0277H138.786V16.6139H140.794Z" fill="white"/>
<path d="M146.106 12.2393H148.088V16.1774L151.742 12.2393H154.136L150.468 16.0599L154.302 21.2457H151.922L149.129 17.4117L148.088 18.4932V21.2457H146.106V12.2393Z" fill="white"/>
<path d="M154.753 19.9324L155.923 18.5295C156.734 19.1988 157.583 19.6243 158.611 19.6243C159.422 19.6243 159.91 19.303 159.91 18.7489C159.91 18.2481 159.602 17.9888 158.095 17.6032C156.28 17.14 155.11 16.6392 155.11 14.8242C155.11 13.1909 156.422 12.1094 158.261 12.1094C159.573 12.1094 160.692 12.5216 161.607 13.2551L160.577 14.7466C159.779 14.1925 158.995 13.8579 158.235 13.8579C157.474 13.8579 157.075 14.2058 157.075 14.669C157.075 15.2607 157.461 15.4535 159.019 15.8524C160.845 16.3289 161.876 16.9849 161.876 18.5805C161.876 20.3689 160.513 21.3729 158.569 21.3729C157.211 21.3729 155.834 20.8964 154.753 19.9324Z" fill="white"/>
<path d="M52.5088 25.4707H53.2645V26.1998H52.5088V25.4707ZM52.5531 27.1683H53.2135V31.6028H52.5531V27.1683Z" fill="white"/>
<path d="M57.1494 27.1676H57.8098V27.9388C58.1024 27.4579 58.5655 27.0723 59.3279 27.0723C60.4005 27.0723 61.0255 27.7925 61.0255 28.8474V31.5998H60.365V29.0092C60.365 28.187 59.9196 27.6706 59.1395 27.6706C58.3772 27.6706 57.8098 28.2269 57.8098 29.0601V31.5976H57.1494V27.1676Z" fill="white"/>
<path d="M65.0656 30.4254V27.7505H64.4473V27.1676H65.0656V25.8291H65.726V27.1676H67.1332V27.7505H65.726V30.3412C65.726 30.8819 66.0252 31.0791 66.4728 31.0791C66.6966 31.0791 66.885 31.037 67.1155 30.924V31.4891C66.885 31.6088 66.6346 31.6775 66.3177 31.6775C65.6041 31.6775 65.0656 31.3274 65.0656 30.4254Z" fill="white"/>
<path d="M72.5251 31.1303C73.1345 31.1303 73.5622 30.8821 73.9235 30.5031L74.3357 30.871C73.8902 31.3674 73.3495 31.7021 72.5096 31.7021C71.2907 31.7021 70.2979 30.7668 70.2979 29.3862C70.2979 28.1008 71.1976 27.0703 72.4254 27.0703C73.7373 27.0703 74.493 28.1163 74.493 29.4194C74.493 29.4793 74.493 29.548 74.4842 29.6499H70.9649C71.058 30.5896 71.745 31.1303 72.5251 31.1303ZM73.8193 29.1225C73.7417 28.3158 73.2786 27.631 72.4054 27.631C71.6431 27.631 71.058 28.2648 70.9649 29.1225H73.8193Z" fill="white"/>
<path d="M78.0479 27.1681H78.7083V28.3249C79.034 27.587 79.6767 27.0551 80.5188 27.0905V27.8019H80.4679C79.4994 27.8019 78.7105 28.4956 78.7105 29.8341V31.6004H78.0501V27.1681H78.0479Z" fill="white"/>
<path d="M83.9229 27.1676H84.5833V27.9388C84.8758 27.4579 85.339 27.0723 86.1013 27.0723C87.1739 27.0723 87.7989 27.7925 87.7989 28.8474V31.5998H87.1385V29.0092C87.1385 28.187 86.693 27.6706 85.913 27.6706C85.1506 27.6706 84.5833 28.2269 84.5833 29.0601V31.5976H83.9229V27.1676Z" fill="white"/>
<path d="M93.5641 31.1303C94.1736 31.1303 94.6013 30.8821 94.9625 30.5031L95.3747 30.871C94.9293 31.3674 94.3886 31.7021 93.5486 31.7021C92.332 31.7021 91.3369 30.7668 91.3369 29.3862C91.3369 28.1008 92.2367 27.0703 93.4644 27.0703C94.7764 27.0703 95.5321 28.1163 95.5321 29.4194C95.5321 29.4793 95.5321 29.548 95.5232 29.6499H92.0062C92.0971 30.5896 92.7841 31.1303 93.5641 31.1303ZM94.8584 29.1225C94.7808 28.3158 94.3176 27.631 93.4445 27.631C92.6821 27.631 92.0971 28.2648 92.004 29.1225H94.8584Z" fill="white"/>
<path d="M99.3156 30.4254V27.7505H98.6973V27.1676H99.3156V25.8291H99.976V27.1676H101.383V27.7505H99.976V30.3412C99.976 30.8819 100.275 31.0791 100.723 31.0791C100.947 31.0791 101.135 31.037 101.365 30.924V31.4891C101.135 31.6088 100.885 31.6775 100.568 31.6775C99.8563 31.6775 99.3156 31.3274 99.3156 30.4254Z" fill="white"/>
<path d="M109.925 27.1676H110.585V28.0585C110.944 27.5266 111.469 27.0723 112.283 27.0723C113.347 27.0723 114.401 27.9122 114.401 29.3881C114.401 30.8375 113.355 31.6951 112.283 31.6951C111.461 31.6951 110.929 31.2497 110.585 30.7511V32.9716H109.925V27.1676ZM113.723 29.3793C113.723 28.3333 113.003 27.664 112.163 27.664C111.341 27.664 110.559 28.3576 110.559 29.3881C110.559 30.4186 111.339 31.1034 112.163 31.1034C113.021 31.1034 113.723 30.4696 113.723 29.3793Z" fill="white"/>
<path d="M118.021 27.1681H118.681V28.3249C119.007 27.587 119.649 27.0551 120.492 27.0905V27.8019H120.441C119.472 27.8019 118.683 28.4956 118.683 29.8341V31.6004H118.023V27.1681H118.021Z" fill="white"/>
<path d="M123.433 29.3881C123.433 28.136 124.41 27.0723 125.748 27.0723C127.078 27.0723 128.055 28.1183 128.055 29.3881C128.055 30.6403 127.069 31.704 125.731 31.704C124.401 31.704 123.433 30.658 123.433 29.3881ZM127.377 29.3881C127.377 28.4352 126.666 27.6551 125.731 27.6551C124.771 27.6551 124.111 28.4352 124.111 29.3881C124.111 30.3389 124.813 31.1123 125.748 31.1123C126.708 31.1123 127.377 30.3389 127.377 29.3881Z" fill="white"/>
<path d="M130.954 27.168H131.683L133.175 30.8468L134.675 27.168H135.386L133.456 31.6357H132.873L130.954 27.168Z" fill="white"/>
<path d="M138.844 25.4707H139.599V26.1998H138.844V25.4707ZM138.886 27.1683H139.546V31.6028H138.886V27.1683Z" fill="white"/>
<path d="M143.225 29.3796C143.225 27.9303 144.279 27.0726 145.343 27.0726C146.165 27.0726 146.697 27.5181 147.041 28.0167V25.3418H147.701V31.6024H147.041V30.7115C146.682 31.2434 146.157 31.6977 145.343 31.6977C144.279 31.6955 143.225 30.8556 143.225 29.3796ZM147.067 29.3707C147.067 28.3491 146.287 27.6643 145.463 27.6643C144.605 27.6643 143.903 28.2981 143.903 29.3885C143.903 30.4345 144.623 31.1038 145.463 31.1038C146.287 31.1038 147.067 30.4079 147.067 29.3707Z" fill="white"/>
<path d="M153.532 31.1303C154.141 31.1303 154.569 30.8821 154.93 30.5031L155.342 30.871C154.897 31.3674 154.356 31.7021 153.516 31.7021C152.298 31.7021 151.305 30.7668 151.305 29.3862C151.305 28.1008 152.204 27.0703 153.432 27.0703C154.744 27.0703 155.5 28.1163 155.5 29.4194C155.5 29.4793 155.5 29.548 155.491 29.6499H151.974C152.067 30.5896 152.752 31.1303 153.532 31.1303ZM154.828 29.1225C154.751 28.3158 154.288 27.631 153.414 27.631C152.652 27.631 152.067 28.2648 151.974 29.1225H154.828Z" fill="white"/>
<path d="M159.055 27.1681H159.715V28.3249C160.041 27.587 160.684 27.0551 161.523 27.0905V27.8019H161.473C160.504 27.8019 159.715 28.4956 159.715 29.8341V31.6004H159.055V27.1681Z" fill="white"/>
</svg>
